<svg xmlns="http://www.w3.org/2000/svg" version="1.1" xmlns:xlink="http://www.w3.org/1999/xlink" xmlns:svgjs="http://svgjs.dev/svgjs" width="2000" height="257" viewBox="0 0 2000 257"><g transform="matrix(1,0,0,1,-1.2121212121212466,1.0612231880965624)"><svg viewBox="0 0 396 51" data-background-color="#ffffff" preserveAspectRatio="xMidYMid meet" height="257" width="2000" xmlns="http://www.w3.org/2000/svg" xmlns:xlink="http://www.w3.org/1999/xlink"><g id="tight-bounds" transform="matrix(1,0,0,1,0.2400000000000091,-0.21059292837713883)"><svg viewBox="0 0 395.52 51.421185856754306" height="51.421185856754306" width="395.52"><g><svg viewBox="0 0 395.52 51.421185856754306" height="51.421185856754306" width="395.52"><g><svg viewBox="0 0 395.52 51.421185856754306" height="51.421185856754306" width="395.52"><g id="textblocktransform"><svg viewBox="0 0 395.52 51.421185856754306" height="51.421185856754306" width="395.52" id="textblock"><g><svg viewBox="0 0 395.52 51.421185856754306" height="51.421185856754306" width="395.52"><g transform="matrix(1,0,0,1,0,0)"><svg width="395.52" viewBox="3.25 -35.01 269.26 35.01" height="51.421185856754306" data-palette-color="#2a2c35"><path d="M17.26-28L10.25-28 10.25-13.99 17.26-13.99Q18.7-13.99 19.97-14.54 21.24-15.09 22.19-16.04 23.14-16.99 23.69-18.27 24.24-19.56 24.24-21L24.24-21Q24.24-22.44 23.69-23.72 23.14-25 22.19-25.95 21.24-26.9 19.97-27.45 18.7-28 17.26-28L17.26-28ZM10.25-7.01L10.25 0 3.25 0 3.25-35.01 17.26-35.01Q19.19-35.01 20.97-34.51 22.75-34.01 24.3-33.09 25.85-32.18 27.14-30.9 28.42-29.61 29.33-28.05 30.25-26.49 30.75-24.71 31.25-22.92 31.25-21L31.25-21Q31.25-18.12 30.15-15.56 29.05-13.01 27.15-11.11 25.24-9.2 22.69-8.11 20.14-7.01 17.26-7.01L17.26-7.01 10.25-7.01ZM51.1-10.96L51.1 0 44.11 0 44.11-10.96Q41.79-11.55 39.85-12.84 37.91-14.14 36.52-15.93 35.13-17.72 34.36-19.91 33.59-22.09 33.59-24.51L33.59-24.51 33.59-35.01 40.6-35.01 40.6-24.51Q40.6-23.07 41.15-21.79 41.7-20.51 42.65-19.56 43.6-18.6 44.88-18.05 46.16-17.5 47.6-17.5L47.6-17.5Q49.05-17.5 50.33-18.05 51.61-18.6 52.56-19.56 53.51-20.51 54.06-21.79 54.61-23.07 54.61-24.51L54.61-24.51 54.61-35.01 61.59-35.01 61.59-24.51Q61.59-22.09 60.83-19.91 60.06-17.72 58.66-15.93 57.27-14.14 55.34-12.84 53.42-11.55 51.1-10.96L51.1-10.96ZM94.35-28L87.35-28 87.35-13.99 94.35-13.99Q95.79-13.99 97.06-14.54 98.33-15.09 99.28-16.04 100.24-16.99 100.79-18.27 101.34-19.56 101.34-21L101.34-21Q101.34-22.44 100.79-23.72 100.24-25 99.28-25.95 98.33-26.9 97.06-27.45 95.79-28 94.35-28L94.35-28ZM87.35-7.01L87.35 0 80.34 0 80.34-35.01 94.35-35.01Q96.28-35.01 98.06-34.51 99.85-34.01 101.4-33.09 102.95-32.18 104.23-30.9 105.51-29.61 106.43-28.05 107.34-26.49 107.84-24.71 108.34-22.92 108.34-21L108.34-21Q108.34-19.19 107.89-17.48 107.44-15.77 106.6-14.23 105.75-12.7 104.53-11.4 103.31-10.11 101.8-9.16L101.8-9.16 105.68 0 98.23 0 95.18-7.06 87.35-7.01ZM140.54-35.01L140.54-13.99Q140.54-11.08 139.44-8.53 138.34-5.98 136.44-4.09 134.54-2.2 131.98-1.1 129.43 0 126.53 0L126.53 0Q123.62 0 121.07-1.1 118.52-2.2 116.63-4.09 114.74-5.98 113.64-8.53 112.54-11.08 112.54-13.99L112.54-13.99 112.54-35.01 119.52-35.01 119.52-13.99Q119.52-12.55 120.07-11.28 120.62-10.01 121.57-9.06 122.52-8.11 123.81-7.56 125.09-7.01 126.53-7.01L126.53-7.01Q127.97-7.01 129.25-7.56 130.53-8.11 131.48-9.06 132.44-10.01 132.99-11.28 133.53-12.55 133.53-13.99L133.53-13.99 133.53-35.01 140.54-35.01ZM174.62-35.01L174.62 0 167.13 0 153.63-23.05 153.63 0 146.62 0 146.62-35.01 154.11-35.01 167.61-11.94 167.61-35.01 174.62-35.01ZM209.12-35.01L209.12 0 201.62 0 188.12-23.05 188.12 0 181.11 0 181.11-35.01 188.61-35.01 202.11-11.94 202.11-35.01 209.12-35.01ZM239.61-7.01L239.61 0 215.61 0 215.61-35.01 239.61-35.01 239.61-28 222.61-28 222.61-21 234.11-21 234.11-13.99 222.61-13.99 222.61-7.01 239.61-7.01ZM258.52-28L251.52-28 251.52-13.99 258.52-13.99Q259.97-13.99 261.23-14.54 262.5-15.09 263.46-16.04 264.41-16.99 264.96-18.27 265.51-19.56 265.51-21L265.51-21Q265.51-22.44 264.96-23.72 264.41-25 263.46-25.95 262.5-26.9 261.23-27.45 259.97-28 258.52-28L258.52-28ZM251.52-7.01L251.52 0 244.51 0 244.51-35.01 258.52-35.01Q260.45-35.01 262.24-34.51 264.02-34.01 265.57-33.09 267.12-32.18 268.4-30.9 269.68-29.61 270.6-28.05 271.51-26.49 272.01-24.71 272.51-22.92 272.51-21L272.51-21Q272.51-19.19 272.06-17.48 271.61-15.77 270.77-14.23 269.93-12.7 268.71-11.4 267.48-10.11 265.97-9.16L265.97-9.16 269.85 0 262.41 0 259.36-7.06 251.52-7.01Z" opacity="1" transform="matrix(1,0,0,1,0,0)" fill="#ffffff" class="wordmark-text-0" data-fill-palette-color="primary" id="text-0"></path></svg></g></svg></g></svg></g></svg></g></svg></g><defs></defs></svg><rect width="395.52" height="51.421185856754306" fill="none" stroke="none" visibility="hidden"></rect></g></svg></g></svg>